P3
# 8x8 simple gradient
8 8
255
  0  0  0   32 32 48   64 64 96   96 96 144  128 128 176  160 160 208  192 192 224  224 224 240
  0 16  0   32 48 48   64 80 96   96 112 144  128 144 176  160 176 208  192 208 224  224 240 240
  0 32  0   32 64 48   64 96 96   96 128 144  128 160 176  160 192 208  192 224 224  224 255 240
  0 48  0   32 80 64   64 112 112  96 144 160  128 176 192  160 208 224  192 224 232  224 240 248
  0 64  0   32 96 64   64 128 112  96 160 160  128 192 192  160 208 216  192 216 224  224 224 232
  0 80  0   32 112 80  64 144 128  96 176 176  128 192 200  160 192 208  192 192 216  224 192 224
  0 96  0   32 128 96  64 160 144  96 176 176  128 176 192  160 176 200  192 176 208  224 176 216
  0 112 0   32 144 112 64 160 144  96 160 160  128 160 176  160 160 192  192 160 208  224 160 224
